<svg width="512" height="512" viewBox="0 0 24 24" fill="none" stroke="currentColor" stroke-width="2" stroke-linecap="round" stroke-linejoin="round" class="lucide lucide-play-icon lucide-play" xmlns="http://www.w3.org/2000/svg"><path style="baseline-shift:baseline;display:inline;overflow:visible;vector-effect:none;fill:#000;fill-opacity:1;stroke:none;stroke-linecap:butt;stroke-linejoin:miter;stop-color:#000" d="M14.053 4.719c-2.013 0-3.674 1.661-3.674 3.674v8.134c0 2.013 1.661 3.674 3.674 3.674H26.35c2.012 0 3.673-1.661 3.673-3.674V8.393c0-2.013-1.661-3.674-3.673-3.674z" transform="translate(-8.319 -2.461)" stroke="none"/><path style="baseline-shift:baseline;display:inline;overflow:visible;vector-effect:none;fill:#fff;stroke:none;stroke-linecap:butt;stroke-linejoin:miter;stop-color:#000" d="M10.327.652a2.66 2.66 0 0 0-2.66 2.66v8.135a2.66 2.66 0 0 0 2.66 2.66h12.297a2.66 2.66 0 0 0 2.66-2.66V3.312a2.66 2.66 0 0 0-2.66-2.66zm0 .562h12.297c1.163 0 2.097.934 2.097 2.098v8.135a2.09 2.09 0 0 1-2.097 2.097H10.327a2.09 2.09 0 0 1-2.098-2.097V3.312c0-1.164.934-2.098 2.098-2.098" transform="translate(-4.593 2.619)" stroke="none"/><path style="fill:none;fill-opacity:1;stroke:#fff;stroke-width:.9375;stroke-dasharray:none;stroke-opacity:1" d="M11.71 22.64v-.963s.048-1.282-1.283-1.282H3.518s-1.197-.048-1.197-1.197v-3.442s-.097-1.397 1.397-1.397 1.266-.006 1.266-.006" transform="translate(4.614 -.166)scale(.71534)"/><path style="fill:#000;stroke:#fff;stroke-width:.9375" d="M11.568 22.839h.09c.78 0 1.407.627 1.407 1.406v5.45c0 .779-.628.882-1.407.882h-.09c-.78 0-1.407-.103-1.407-.882v-5.45c0-.78.627-1.406 1.407-1.406" transform="translate(4.614 -.166)scale(.71534)"/><path style="stroke:#fff;stroke-width:.937507;stroke-dasharray:none" d="M16.182 12.048H14.23m-2.718 0h-.96a1.403 1.403 0 0 1-1.406-1.406V7.987c0-.78.627-1.406 1.406-1.406h12.575c.78 0 1.406.627 1.406 1.406v2.655c0 .78-.627 1.406-1.406 1.406H18.62" transform="translate(1.741 3.399)scale(.71534)"/><g style="stroke-width:.9375;stroke-dasharray:none"><path style="stroke:#fff;stroke-width:.9375;stroke-dasharray:none" d="M13.827 9.662v2.304a1.149 1.149 0 1 1-2.299 0V9.662" transform="translate(1.741 3.399)scale(.71534)"/><path style="stroke:#fff;stroke-width:.9375;stroke-dasharray:none" d="M10.379 6.599c.636 0 1.15.607 1.15 1.245v2.304m6.985-.613v3.368a1.148 1.148 0 1 1-2.298 0V9.535m-2.389.592v-.555c0-.638.532-1.152 1.194-1.152s1.195.514 1.195 1.152v.555m2.298 0v-.555c0-.638.533-1.152 1.195-1.152h4.755" transform="translate(1.741 3.399)scale(.71534)"/></g><g style="stroke-width:1.34971;stroke-dasharray:none"><path style="stroke:#fff;stroke-width:.965516;stroke-dasharray:none" d="m30.46 7.11 1.703 1.703m0 0-1.704 1.704" transform="translate(-15.698 .454)scale(.6946)"/></g></svg>